<svg width="338" height="490" viewBox="0 0 338 490" fill="none" xmlns="http://www.w3.org/2000/svg">
<path d="M229.848 119.137C380.371 13.5557 246.241 -6.65763 211.024 69.8195C284.098 10.1521 315.077 47.6613 229.848 119.137Z" fill="#FF2C2C"/>
<path d="M263.468 149.423H201.577C216.79 157.688 229.709 166.649 240.337 176.235H263.468C289.655 176.235 311.049 197.629 311.049 223.816V259.38C278.61 207.492 232.835 184.153 185.115 149.423C176.988 143.449 169.069 137.406 161.637 131.293C152.954 124.139 144.966 116.845 137.951 109.621C122.461 93.6449 111.903 77.8771 110.166 63.568C104.679 19.5989 176.849 11.1246 203.8 114.9C201.925 78.0855 196.715 41.896 167.541 16.7509C113.57 -29.8578 62.5154 35.3667 100.372 101.494C110.027 118.304 124.614 134.627 143.994 149.492C281.111 254.587 311.049 232.915 311.049 414.557C311.049 426.991 306.187 438.383 298.268 446.926C289.585 456.304 277.152 462.208 263.398 462.208C196.09 462.208 132.394 461.374 65.2244 461.374C43.2051 457.207 26.3954 437.758 26.3954 414.557V223.885C26.3954 197.698 47.7896 176.304 73.9766 176.304H147.259L111 149.492H73.9766C35.5643 149.423 3.68146 179.083 0 216.661V421.781C3.68146 459.36 35.5643 489.02 74.1155 489.02C137.256 489.02 200.397 489.02 263.537 489.02C304.45 489.02 338 455.54 338 414.557V223.885C337.931 182.972 304.45 149.423 263.468 149.423Z" fill="#FF2C2C"/>
</svg>
